<svg xmlns="http://www.w3.org/2000/svg" viewBox="0 0 2579 871" shape-rendering="geometricPrecision" text-rendering="geometricPrecision" image-rendering="optimizeQuality" fill-rule="evenodd" clip-rule="evenodd"><g fill="#fefefe"><path d="M2531 582c6-6 10-14 15-23 33-65 42-136 24-207-15-60-47-115-90-159l-1-2 1-2c6-14 9-28 2-43-4-9-12-17-18-25-3-4-6-7-9-11v6c1 0 1 1 1 1 32 24 29 59 19 68-29 4-34-21-35-41-1-11-2-22-2-21 7 8 6-3 6-6-3-15 1 0 3 1 3 2 5 4 6 5l-5-12c-3-9-7-15-13-20 1 3 2 5 3 8 2 4 5 11 2 15l-2 5c-2-2-4-4-5-6 2 10 3 21 4 31 2 12 4 31 13 40 5 5 12 6 19 6h2c36 41 66 88 82 141 22 74 13 147-20 215-3 7-7 14-11 19-1-1-2-3-3-4-9-10-26-25-40-32l-2-1c-13-6-31-13-44-23 1-1 2-2 2-4l-6-9c6-5 26-26 34-65-1 5-2 9-2 13 5-22 6-45 3-68-4-35-17-68-38-97-4-6-8-11-12-17-2-1-3-3-4-4-3-5-7-9-10-13 5 1 10 3 15 4 15 4 28 2 42-5l7-4-7-5c-32-24-49-54-63-91-6-14-11-30-17-44-14-32-32-49-68-50-4 1-9 1-13 1-1-1-2-1-3-1v-1c3-4 11-11 13-13l7-7-9-2c-33-7-63-2-85 24-7 7-12 15-17 24-2 2-5 7-9 9 1-3 1-7 1-10 1-11 2-21 1-32V26l-8 9c-3 2-4 5-6 8-2 2-3 4-4 6 1-18-1-37-19-45l-7-4v9c1 9-1 22-3 31s-7 26-17 30c0-1-1-5-1-6-1-5-2-11-3-16-4-15-13-26-27-33-8-4-15-2-22 2-5 3-9 6-14 9-12 8-24 12-39 11-24-2-52 12-70 28-7 6-16 15-17 25 0 5 1 9 3 14 2 3 3 7 5 10 0 1 1 4 0 5 0 1-3 2-3 2h-10c-5 0-11-1-16-2l-5-2-1 5c-2 11 0 20 3 30 2 4 4 8 5 13-7-3-14-7-20-10-7-4-17-10-22-15l-6-7-3 8c-5 17 0 32 8 47 3 5 7 10 10 16 1 1 2 2 2 4-6-1-12 0-19 2-28 12-41 56-46 83-2 10-3 20-4 29-4 32-1 67 11 98 9 25 25 51 51 62 3 1 6 2 9 2 1 14 5 28 14 39 12 17 31 27 50 32 53 16 90 19 107 32 13 10 10 45-11 87l-25 49c-3 10-11 26-14 34l-4 6-2 6-1 4h-6c-17 2-29 3-46 11-4 3-6 5-9 8l-15 2c-6 1-16 3-20 7l-2 4-1 2c-4 7-7 20-9 29l-1 11 3 3 3 2 5 5 1 6c15 8 14 5 30 6l6 2h14c7-2 14-5 21-8l3 1 5 2 38-1 13-2 10-2 7-2 4-1c5-2 12-5 16-7 5-2 21-11 26-16l13-13c2-2 8-11 9-13l5-11 2-6 2-9 2-12 3-19 2-13 2-5 1-3c2-3 15-22 18-25v-2h2c3 15 23 20 30 18l2 3c6 13 22 15 35 15l8 8 4 3 11-2 5-2 4-2 5-5 2-4c1-5 2-11 0-16l-1-3c14 0 29-4 39-14l1-1c3 14 5 17 14 25 0 6-30 35-36 40l-1 5-5-2h-8c-16 5-40 33-30 52l3 2 6 2 29 2 20-1 4-1 5 2c18 2 9 3 30-6l10-9 12-14c12-11 29-35 38-44l3-10-1-19-2-5-1-3c0-16 3-31 14-43l3-3 1 16c1 7 3 16 7 22l1 2c3 9 13 23 21 31l1 1v2c-5 5-9 11-13 15-11 23-37 20-43 30-4 6-7 15-8 18v1l1 13 4 2 9 2 16-1 7-2 5 1 23 1 9-1 7 2 15-1 7-2 3-3 6-5 3-6 2-8 2-8 2-10 2-8 2-4 2-2 4-3 6-6 2-3 2-4 1-3c0-15-6-24-10-40v-15c2-13 2-19 8-31l2-3 2-4 3-3c9-19 12-48 4-73zm-457-230c-2 6 0 12 4 18 13 10 26 16 41 19 15 2 31 0 49-6 8-3 14-7 19-13 4-6 6-14 7-23v-2c4-1 5-3 5-4s-2-3-8-5c-16-6-32-10-50-11-17-1-34 1-52 8-8 7-13 13-15 19zm90-50c1 0 3-1 3-3 0-1-2-2-3-2s-3 1-3 2c0 2 2 3 3 3zm-60 3c1 0 3-2 3-3 0-2-2-3-3-3-2 0-3 1-3 3 0 1 1 3 3 3zm-22-5c8-4 18-17 30-18 10-1 20 8 14 18-1 3-4 3-3 8 1 13-4 4-11 4-10 0-13 2-21 7l-12 8c-1 1-16 1-12-1 13-8 30-10 32-21-5-11 11-17 16-7 2 1-1 5 3 4 7-1-4-16-15-12-3 1-23 16-21 10zm105-6c1-9-8-22-17-16-7 5-15 12-18 20-2 3-6 21 0 18 11-5 31-1 44 7 4 2 8 3 6-3-2-4-23-11-27-12 4-9-3-18-13-12-6 3-3 11-7 10-4-2 5-23 19-24 16-1 1 11 13 12zm-70-45c0-1 0-1-1-1 0-7 2-2-1-7v6l2 2zm101 8c4 5 9 13 11 19 2-4 7-27-11-19zm-145 19c0-6 4-8 8-12 2-1 8-1 5-4-10-12-15 3-15 10 0 3 2 5 2 6zm15 85c-1-38 85-26 101-16-42-25-119-18-101 16zm67-38c10 2 19 3 24 6 2 0 5 1 8 2 2 1 4 2 5 2 7 2 10 5 10 8 1 2-2 5-5 7-1 10-3 18-8 24s-11 11-20 14c-18 6-35 8-51 6-15-3-29-9-42-20-5-7-7-13-5-20s7-14 16-22c19-7 37-9 55-8 4 0 8 1 13 1zm100-15c1-9 2-16 5-21 2-43-40-68-64-80 10-19 19-44-15-19-1 0-1 1-2 2 0-5 1-9-1-10-1 0-4 0-8 1l1-1c-1-21-12-14-18-1-8 0-20 10-22 14-2-3-3-2-4 2-7 4-8 16-13 22l-2-4c-24-49-7 18-8 28 0 3-1 5-2 8v2c-1 1-2 1-3 1-3-6-13-19-21-21-20-3-24 35-22 48 0 3 0 5 1 7-6 12-14 25-18 34-10 20-18 30-29 39-4 5 10 12 10 17-13 9-27 16-42 19-3 3-4 6-4 10 0 3 1 7 2 8 2 3 6 5 9 3 1 0 1-1 2-2-21 33-10 53 8 53 26 0 44-14 66-18 2 1 3 1 5 1 9 2 17 5 23 7v-1l12-7c2 6 4 13 6 20 1 3 2 6 2 11v2c2 14 2 28-1 40 12-12 15-20 18-30 1 4 2 19 1 25 5-2 12-11 14-24 1 1 5 1 6 1 2 7-4 22-5 31 17-13 25-48 25-68 1-4 3-6 6-7v-8c19-3 43-4 53-3 2 0 8-5 8-5 2-14 13-44 27-50 3-1 5-4 4-8 0-2-2-4-4-4-34-8 4-35 23 28 2 8 4 17 5 25-8 17-22 27-36 39-57 10-89 78-56 129-1 1-3 2-4 3-5 5-11 10-16 16-4 5-8 9-12 14-7 11-19 35-19 47v8c0 7 9 14 17 14v-5c0-7 4-10 9-14 4-4 2-9 3-16h1v-1l-5-6c4-16 12-29 28-33l6 15 4 3h22c4 6 4 16 7 18 0 0 15 7 17 8 2 5 9 10 9 23v4c0 3-1 3-1 6l-4 2-16-11 1-1h-3c-2-6-24-12-32-13 0 17-10 19-10 30v4c0 6 6 15 10 17 7 6 12 5 18 7-1-4-4-4-4-9v-4c0-4 6-12 9-15 3-5 5-14 8-16 0-1 0-1 1-1 0 3 1 2 1 4 0 15-13 16-13 28v1c0 6 16 23 18 23 5 0 13-3 17-7 1-1 1-2 1-3v-6c0-8-6-16-9-21l1-3v1l1-1c4 1 7 4 11 4h9c23 0 63-42 81-60h1c12-13 20-21 31-38 2-4 2-9 4-14s3-1 7-11c4-8 9-14 9-26v-1c0-13-7-15-8-22l1-1 10 6c0-6 2-8 2-15v-18c2-3 4-6 5-10v-2c3 3 7 7 10 9l1-1c-3-3-7-7-10-11v-3l-1 2c-2-3-4-6-6-8 1 4 3 7 5 10-2 3-3 6-5 8-1-3-1-6-1-9-3 5-6 10-9 14v8c-21 19-42 19-32 13 4-3 25-23 26-29-30 34-54 8-75 66 2 0 4 1 7 0-13 5-26 7-39 6-11-8-23-9-34-8-20 5-41 16-57 28v-8c0-30 6-52 19-70-5 14-8 31-9 54 18-34 45-40 73-41v-5c1-7 5-30 16-45-1-16 4-31 11-45 0 8-1 20-6 40 2-2 4-4 6-5l-2 11c0 2-1 3-1 4 12-27 15-45 16-57-1-3-2-7-5-8 2-3 4-6 6-8 0-4 1-7 4-9h2c2-4 4-8 6-11 6-10 3-25 3-24-2 17-32 50-26 39 8-17 3-36-3-51-2-7-18-26-16-22 2 3 3 22 2 26 0 1-13-23-27-35 18 19 30 51 27 80-1-2-1-3-2-4-6-23-20-49-46-52-7-1-14 0-19 4-7 0-9-5-12-5-4-1-10 2-12 6-2 5-1 7 4 9 15-8 44 9 29 34-7 12-16 26-18 34-18 0-47 1-64 6h-1c-5-7-16-29-19-34-6 3-34 37-41 45-19-6-41-9-61-12-3-1-3-5-3-11 0-8 1-17-4-28 0 0 3-2 5-5 5-3 10-6 15-8 4-2 7-3 8-3 2 0 3-1 4-2 7-6 8-37-5-29-7 7-14 14-21 20 6-22 17-23 27-57 0-5 0-9 1-14 1 1 4 2 7 0 4-2 9-14 6-15 4 0 5-4 7-7s12 4 17 0c6-4 12-11 16-14 3-2 3-5 3-7 0 1 2 2 4 2 3 1 6-3 7-6 0-2 1-4 1-6 1 0 2 1 2 1 2 0 4 0 5-1h3c3 0 5-2 6-5l10-31v-1h1l-1 2-7 24v4l1 1 5 3h-2 3c2-1 3-2 4-3l17-26c1-1 2-3 3-4h4l-4 6-8 17c-1 3-3 6-3 8-1 2 0 4 1 6s5 3 7 1h1c0 2 0 4 2 5 2 2 5 1 8-1 0 3 0 5 2 8 1 2 3 3 5 4h2c8 4 10 3 16 9 14 14-2 39 21 35 2 0 4-2 5-5 0 4-1 7-2 11l-6 3 22-5c1 0 2 1 2 1zm-69-106l-2-2 3-3 3-1-4 6zm-65 26l1 1-1-1zm74-19c12 5 24 17 33 32-7 0-15 2-20 7-3 2-5 0-9-1l1-1c0-2 1-3 2-5 0-1 0-3 1-5 0-2-1-5-4-6-2-1-4-1-6-1 1-2 1-4 0-7-1-1-2-2-4-3 2-2 4-6 6-10zm102 74c26 15 53 52 53 82 0 14-3 24-8 33v-1l-5 8c2 5 3 8 9-11l10-14c0 11-7 38-20 42 0-1-2-7-3-10l-1 2-2 2v3c0 39-18 52-23 80v3c0 1 0 2-1 3-1-4-2-7-2-12 0-1-1-3-1-4l2-4c-8 4-10 22-13 39 35 0 69 4 86-29 62-38 92-84 81-143 5 41-13 86-85 129 21-37 38-105 0-167-19-29-31-62-43-69-10-5-35-1-23 21-3 8-7 13-11 17zm24 151c-2 4-3 8-5 13 1-3 1-7 1-10 0-11 2-8 4-3zm-173 95c-2 3-4 6-6 10 19 18 39 39 3 91h-1c2 1 3 3 3 4 2 2 4 4 4 5l16-24c10-21 13-44-1-66-5-8-11-14-18-20zm-15 2c1-4 0-7-3-4 1 1 2 2 3 4zm-109 298v3c5 0 8 1 11 1-6 5-11 8-14 8-10 2-30-1-40-2-25-20-4-24-30-45 5-2 11-8 22-12 10-3 19-4 32-4l-5 11h3c1-1 1-2 2-3l2-5c0-1 1-3 1-4 34-73 60-102 75-189v-2c-11-10-28-15-42-18-14-4-28-6-42-10-31-7-78-18-94-49-10-21-4-44 7-63 4-7 9-14 13-21 12-17 25-34 37-51 2-3 4-7 6-10-11-1-22-1-33-2v-20c-4 1-8 2-10 3-10 3-20 3-30-1l-23-10c25-20 16-54 35-75 9-11 30-1 45-7-21-9-27-53-53-80 19 10 35 9 47 6-1 8 31 28 22 63 0 1 24 17 14 18-17 3-42 13-55 28-12 14-7 30-22 42 24 11 49-26 49 18 25 1 43 3 36 15-11 21-51 73-61 91-50 90 102 85 154 111 24 12 35 35 40 55h-4c-7 13-7 47-10 66-4 24-11 36-20 56-7 16-16 37-24 52-5 8-32 33-41 36zm-37-415c4-7 10-14 17-21l-18 12c1 1 1 2 1 3 1 2 1 4 0 6zm389-213c-1-5 0-9 3-12-3-8 1-15 9-14 7 0 18 10 17 5v-2c6 17 11 37 24 45-27 6-42-19-53-22zm26-30c-13-21-57 17-47-15 26-36-15-35-37-31-9-10 41-13 17-34-19-13-50 1-67 11 18-14 28-24 31-32 1 3 1 6-3 9 21-13 71-25 56 29-1 1-1 2-1 2 7 2 14 6 19 13 6 9 5 19 1 29 17-5 25 5 31 19zM2292 55c-1 0-3 0-4-1 1-1 2-2 2-3 1 2 1 3 2 4zm0-19c-4-4-16-3-31 2-37 13-19 57-79 68-5 19-44 40-49 13-11-61-25-63-48-62-3 12-25 25-21 46-11-18-32-41-18-54 55-20 87 0 88 64 3 18 14-50 31-64-3 20 0 41 10 43 6 6 22 3 30-7 13-16 49-67 96-57-4 3-7 5-9 8zm-222 80v1c31 49-12 49-13 12 11-2 14-7 13-13zm-24-14c-12-12-32-17-55-9 0 25-7 49 4 60 12 11 39 19 40 29-1 29-23-9-66-9h-11c2-1 4-2 5-3 4 0 9-12 13-11-6-10-7-22-6-33s2-22 2-33V82l10-3c18-6 54-8 64 23zm-113 140c-21-6-46-22-64 10-29 52-22 97 0 151 8 19 23 37 27 48 10 25 9 2 9-14 0-35-25-53-25-77 0-8-4 10-4 16 0 22-8-19-8-28 0-32 2-47 16-70 7-12 28-35 49-36zm271 432l-25-12c0 18-10 21-10 25v3c0 14 12 24 25 25 0-4-1-2-1-6 0-16 10-16 10-34h1v-1zm200-151c-1 10-2 20-3 28-3 24-9 37-22 50-11 11-63 71-75 71-1 0-3-2-3-3 0-11 22-35 28-43 5-7 10-13 14-21 2-4 4-26 5-30 1-3 3-8 5-14 5-2 9-3 14-5 14-9 26-20 37-33zm-50 140c6 0 12-3 17-4 8-2 12-1 20-2 11-1 27-5 29-15 2-12 3-24 8-33 4-6 18-18 18-26 0-14-14-17-27-17-2 8-9 20-12 29-3 10-7 21-11 29-4 11-8 17-18 22-8 4-20 11-24 17zm-23 66c-2 3-5 7-10 11l-13 13-3 3c-6 6-14 15-18 19 0 1-1 1-1 2-3-2-5-4-9-4-12 0-28 18-28 31v2c0 6 3 11 10 11h15c0-11 2-19 7-23 5-5 12-7 21-9l2-7v1l1-1c2 3 1 0 1 2 0 3-1 6-2 9h-9c-2 0-4 2-7 4-4 4-7 10-7 14v7c0 4 4 5 7 5h6c4 0 5-1 9-2 0-9 3-14 11-18 4-2 6-3 8-5 3-4 3-7 5-8 0-1 1-1 2-2v6c0 4-2 6-4 8-3 4-10 4-13 7-2 3-2 5-2 8s0 3 1 5h14c20 0 30-24 43-36 2-3 6-7 10-11 10-9 21-22 21-34 0-1-1-4-2-6v8c0 1-13 18-15 19-8 7-11 10-23 13-8-5-3-15-3-27v-10c0-4-3-10-6-10h-18l-1 5zm170-54c0-29 31-37 31-63v-5c0-10-3-23-14-23-10 0-22 16-28 22-13 13-12 31-12 48 0 12 2 35 4 46s2 37 12 37c13 0 7-28 7-42v-20zm-26-494c16-28-10-47-14-58-5 5 11 18 7 27 0 0 0-7-10-13 1 10 8 19 1 29-4-1-7-13-8-3-1 8 13 24 24 18zm-19-59z"/><path d="M0 568h62l9-73h32c5 0 10 0 16-1 5 0 11-2 17-4 6-1 12-4 18-8 6-3 12-8 17-14 4-4 7-9 10-14s6-12 8-19 3-15 3-24-1-17-4-24c-2-7-5-12-8-17-4-5-9-10-15-13-5-3-10-6-16-7-5-1-11-2-16-3H27L0 568zm83-172h18c4-1 9 0 12 1 4 1 8 3 10 6 2 2 3 5 4 7 1 3 1 5 1 8 0 4-1 7-2 10-1 4-3 7-5 10-2 2-5 4-8 5-4 2-7 3-10 3s-6 1-9 0H77l6-50zm127-49l63 160-37 61h67l126-221h-65l-49 95-34-95h-71zm209 221h99c5 0 12 0 18-1 7 0 14-2 21-4s14-5 20-9c4-3 8-6 11-9 4-4 8-8 11-13s5-11 7-17 3-14 3-22-1-15-3-21-5-11-8-15-6-7-9-10c-5-4-11-7-17-9s-12-3-19-4c-6-1-12-1-18-1h-37l4-33h101l7-53H447l-28 221zm68-44l5-47h25c3 0 6 0 9 1 2 0 5 0 8 1 2 0 4 1 6 3l3 3c1 1 2 3 3 5 1 3 1 5 1 9s0 8-2 11c-2 4-5 7-9 9-3 2-8 4-12 4-4 1-8 1-13 1h-24zm194-177l-15 122c0 2 0 4-1 7 0 3-1 6-2 10 0 3-1 6-2 9s-2 5-3 7c-1 3-3 5-6 7-2 3-5 4-9 6-3 1-7 2-12 2h-7c-3-1-5-1-8-2l-6 53c3 1 5 1 8 2 3 0 5 1 8 1h9c6 0 13 0 20-1s13-2 20-5c7-2 13-5 19-10 6-4 12-10 16-17 4-6 7-12 9-17 2-6 3-12 4-18 1-5 2-11 3-16l10-87h45l-21 168h62l27-221H681zm208 0l-27 221h62l101-133-17 133h60l27-221h-62L932 480l17-133h-60zm353-6c-9 0-19 0-28 2-10 2-19 4-28 8-10 4-19 10-28 17-5 4-11 10-16 16-6 6-11 14-15 22-5 9-8 18-11 29s-4 23-5 37c0 12 2 23 4 33 3 9 6 17 11 24 4 7 9 13 14 18s11 10 19 14c7 4 16 7 26 10 10 2 21 3 34 3 9 0 18 0 28-2 9-2 19-4 28-8s18-10 27-17c6-4 11-10 17-16 5-6 10-14 15-22 4-9 8-18 11-29s4-23 4-37c0-12-1-23-4-33-2-9-6-17-10-24s-9-13-14-18-12-10-19-14c-8-4-16-7-26-10-10-2-21-3-34-3zm-18 180c-6 0-11 0-16-2-5-1-9-3-12-5-3-3-6-5-8-7-4-5-7-9-8-13-2-5-3-10-4-14s-1-8-1-12c0-9 1-18 3-25s4-13 7-18c2-5 5-9 9-13 3-3 7-6 11-9 5-3 10-5 15-7 5-1 11-2 17-2s11 0 16 2c4 1 8 3 12 5 3 3 6 5 8 8 3 4 6 8 8 12 2 5 3 10 3 14 1 4 1 8 1 12 0 9-1 18-2 25-2 7-4 13-7 18s-6 9-9 13c-3 3-7 6-12 9-4 3-9 5-14 7-6 1-11 2-17 2zm142 47h61l11-88h75l-10 88h62l27-221h-62l-10 80h-75l10-80h-62l-27 221zM164 674c-6-4-11-7-17-9s-12-3-18-4-12-1-17-1c-10 0-19 1-27 2-8 2-17 5-24 9-8 4-16 9-23 15-4 4-8 9-13 14-4 5-7 11-11 18-3 7-6 14-8 23-1 8-2 17-2 27-1 8 0 15 2 23 1 7 3 14 7 21 3 7 8 13 14 19 3 4 6 7 10 10 5 3 9 6 15 8 5 3 11 5 17 7 7 1 14 2 21 2 8 0 14-1 20-2s11-2 15-4c5-2 9-3 11-5 3-1 6-3 7-4l4-34c-2 2-5 4-8 7-4 2-7 5-12 7-4 2-9 4-14 5-6 2-11 3-18 3-9 0-17-2-25-5-7-3-14-7-19-13-6-6-10-12-13-20s-4-16-4-26c0-12 2-23 6-33s9-18 16-25c6-7 14-13 23-16 9-4 19-6 30-6 7 0 13 1 19 2 5 2 10 3 14 6 4 2 8 4 11 7 3 2 5 4 7 6l4-34zm141 180h29l25-199-145 136 15-127h-29l-25 198 145-135-15 127zm125-190h-29l-23 190h29l11-89h81l-11 89h29l24-190h-30l-9 74h-81l9-74zm259 0H584l-23 190h105l3-27h-75l7-63h74l3-27h-73l5-46h76l3-27zm38 190l34-115 40 124 70-124 6 115h28l-10-205-85 148-48-148-66 205h31zm349 0h32l-66-201-119 201h32l27-46h80l14 46zm-79-73l36-65 21 65h-57zM52 237c-2-1-3-2-5-3-2 0-4-1-5-1h-6c-2 0-5 0-8 1-2 0-4 1-7 2-2 1-4 3-6 5-2 1-3 2-4 4-2 1-3 3-4 5s-1 4-2 6c0 3-1 5-1 8 0 2 0 5 1 7 0 2 1 4 2 6s2 4 4 6c1 1 2 1 3 2 2 1 3 2 4 3 2 1 4 1 6 2h12c2-1 3-1 4-1 2-1 3-1 4-2 1 0 1-1 2-1l1-10c-1 1-2 1-3 2s-2 2-3 2c-1 1-3 1-4 2h-5c-3 0-6 0-8-1s-4-2-6-4c-1-1-3-3-3-6-1-2-2-4-2-7 0-4 1-7 2-10 1-2 3-5 5-7s4-3 7-5c2-1 5-1 9-1h5c2 1 3 1 4 2 2 1 3 1 4 2 0 1 1 1 2 2l1-10zm42-3H63l-7 55h31l1-8H65l3-18h21l1-8H69l1-13h23l1-8zm38 8l1-8H99l-1 8h13l-6 47h9l6-47h12zm2 47h22c1-1 2-1 4-2 1 0 2-1 4-2 0 0 1-1 2-1 0-1 1-2 2-3s1-3 2-4v-10c-1-2-1-3-2-4 0-1-1-2-2-2-1-2-2-3-4-3-1-1-3-1-5-1-1-1-3-1-4-1h-6l2-22h-8l-7 55zm12-25h8s1 0 2 1c1 0 2 0 3 1 1 0 1 1 2 2 0 1 1 2 1 4 0 1-1 2-1 4 0 1-1 2-2 2-1 1-2 2-4 3h-12l3-17zm65-30h-8l-7 55h8l4-26 19 26h11l-22-30 29-25h-12l-24 22 2-22zm72 55h9l7-57-43 39 5-37h-9l-7 58 43-40-5 37zm38-55h-9l-7 55h9l3-26h24l-3 26h9l7-55h-9l-3 22h-24l3-22zm71-1c-3 0-6 0-8 1-3 0-5 1-7 3-3 1-4 2-6 4-2 1-3 2-4 4-1 1-2 3-3 5l-3 6c0 3-1 6-1 8 0 3 1 5 1 7s1 4 2 6 3 4 4 6c1 1 2 2 4 2 1 1 2 2 4 3s4 1 6 2h7c3 0 5 0 8-1 3 0 5-1 7-2s4-3 6-4c1-2 3-3 4-4l3-6c1-2 2-4 2-6 1-3 1-5 1-8v-7c-1-2-1-4-2-6-2-2-3-4-5-5l-3-3c-1-1-3-2-4-3-2 0-4-1-6-1-2-1-4-1-7-1zm-4 49c-4 0-7 0-10-2-3-1-5-4-6-6-2-3-3-6-3-10s1-7 2-10c1-2 3-5 5-7s4-3 7-5c3-1 6-1 9-1 4 0 7 1 10 2l6 6c1 3 2 7 2 10 0 4 0 7-1 10-2 3-3 5-5 7s-5 4-7 5c-3 1-6 1-9 1zm73-40l1-8h-35v8h12l-6 47h9l6-47h13zm40-8h-32l-7 55h32l1-8h-23l3-18h21l1-8h-22l2-13h23l1-8zm43 55h9l-19-58-36 58h10l8-13h24l4 13zm-24-21l11-19 6 19h-17zm75-26l1-8h-35l-1 8h13l-6 47h9l6-47h13zm8-8l-7 55h9l3-22h8c1-1 3-1 5-1 2-1 4-2 5-3 2-1 3-2 4-4 1-1 2-3 2-4 1-2 1-4 1-6v-4c-1-1-1-3-2-4s-2-3-4-4c-1-1-2-1-4-2-1 0-3-1-4-1h-16zm8 8h8c1 1 2 1 2 2 1 0 2 1 2 2 1 1 1 2 1 4v3c-1 1-1 2-2 3s-3 2-4 2c-1 1-3 1-5 1h-4l2-17zm58-9c-3 0-6 0-8 1-3 0-5 1-7 3-2 1-4 2-6 4-1 1-3 2-4 4-1 1-2 3-3 5l-3 6v8c-1 3 0 5 0 7 1 2 1 4 2 6s3 4 4 6c1 1 2 2 4 2 1 1 3 2 4 3 2 1 4 1 6 2h7c3 0 6 0 8-1 3 0 5-1 7-2s4-3 6-4c1-2 3-3 4-4l3-6 3-6v-15c-1-2-1-4-2-6s-3-4-4-5-3-2-4-3-3-2-4-3c-2 0-4-1-6-1-2-1-4-1-7-1zm-4 49c-4 0-7 0-10-2-2-1-5-4-6-6-2-3-2-6-2-10s0-7 1-10c1-2 3-5 5-7s4-3 7-5c3-1 6-1 9-1 4 0 7 1 10 2 2 2 5 4 6 6 2 3 2 7 2 10 0 4 0 7-1 10s-3 5-5 7-4 4-7 5-6 1-9 1zm45-48l-7 55h19c2 0 3-1 5-1 2-1 4-2 5-3 2 0 3-1 4-3 1-1 1-2 2-4s1-4 1-6v-2c0-1 0-2-1-3 0-1 0-2-1-3 0-1-1-2-2-2-1-1-2-2-4-3 2-1 3-2 4-3s2-3 2-4v-9c-1-1-2-3-2-4-1-1-2-1-3-2s-2-2-4-2c-1 0-2-1-4-1h-14zm8 8h5c1 0 2 0 3 1 1 0 1 1 2 2s1 2 1 4c0 1 0 2-1 3 0 1 0 2-1 3s-2 1-3 2c-1 0-3 1-5 1h-3l2-16zm-3 23h10c1 0 2 1 3 1 0 1 1 1 2 2v8c-1 1-1 2-2 2-1 1-2 2-4 3h-11l2-16z" fill-rule="nonzero"/></g></svg>