<svg xmlns="http://www.w3.org/2000/svg" viewBox="0 0 3049 1040" xmlns:xlink="http://www.w3.org/1999/xlink" shape-rendering="geometricPrecision" text-rendering="geometricPrecision" image-rendering="optimizeQuality" fill-rule="evenodd" clip-rule="evenodd"><defs><linearGradient id="id1" gradientUnits="userSpaceOnUse" x1="2237.46" y1="707.23" x2="3030.87" y2="341.04"><stop offset="0" stop-color="#ef7f1a"/><stop offset="1" stop-color="#e54e2b"/></linearGradient><linearGradient id="id2" gradientUnits="userSpaceOnUse" x1="2650.12" y1="949.43" x2="2453.78" y2="203.33"><stop offset="0" stop-color="#f7aa47"/><stop offset="1" stop-color="#e68b29"/></linearGradient><linearGradient id="id3" gradientUnits="userSpaceOnUse" x1="2712.5" y1="90.88" x2="2482.64" y2="952.85"><stop offset="0" stop-color="#f9e312"/><stop offset="1" stop-color="#fff7b2"/></linearGradient><linearGradient id="id4" gradientUnits="userSpaceOnUse" x1="2320.17" y1="222.4" x2="2924.23" y2="799"><stop offset="0" stop-color="#fffbdb"/><stop offset="1" stop-color="#fefefe"/></linearGradient><clipPath id="id0"><path d="M0 556h2099v484H0V556z"/></clipPath><style>.fil15{fill:#22201e}.fil14{fill:#fefefe}</style></defs><g id="Слой_x0020_1"><g id="_835693488"><g clip-path="url(#id0)"><image y="556" width="2099" height="484" xlink:href="logo_Images\logo_ImgID1.png"/></g><path d="M1739 651v-54h323v400h-128V853h-68v144h-127v-54c-6 9-14 17-23 24-16 11-33 20-52 25-19 6-39 8-59 8s-40-2-59-8c-19-5-36-14-52-25-10-8-19-17-26-27v57h-443V715h-33v62c0 27-2 54-5 81-3 24-9 48-20 71-12 22-28 39-49 52-25 16-72 24-101 22l-69-3 5-3H571V764l-48 124c-8 18-15 37-25 54-8 13-18 27-30 37-11 9-24 16-39 19-14 4-28 5-43 5h-56V892h52c1 0 4 0 6-1s3-3 4-6l-48-120c-1 6-3 11-5 17-6 16-15 30-26 43-12 13-27 23-43 31-19 8-38 11-58 11h-48v130H37V597h327c12 0 26 8 35 15 16 13 26 31 32 49l18 47 8 25 11-32 14-40c12-32 32-61 69-64h705v160l103-160h109v56c8-11 18-21 29-29 16-11 33-18 52-23 18-5 37-8 56-8s38 3 56 8c19 6 36 14 52 25 10 7 19 16 26 25z" fill="#fafbfd"/><g fill-rule="nonzero"><path d="M141 772h61c15 0 26-4 33-12 6-8 9-17 9-28s-3-20-9-28c-7-8-18-12-33-12h-61v80zm73-153c20 0 37 3 51 10 14 6 26 15 35 25 9 11 15 23 19 36 5 14 7 28 7 42s-3 28-8 42c-5 13-12 25-22 36-10 10-22 19-36 25-14 7-30 10-48 10h-71v129H60V619h154z" fill="#008dd2"/><path d="M352 915h30c9 0 16-2 21-7 5-4 8-9 10-15l4-8-71-176c-15-40-34-73-68-90h86c7 0 33 11 46 50l17 47 29 81h3l31-88 14-40c11-33 28-48 49-50h66c-29 23-37 54-47 79l-71 182c-7 20-15 37-23 50-7 14-15 24-24 31-9 8-19 13-30 16-11 2-24 4-38 4h-34v-66z" fill="#92c02c"/><path d="M646 619h180v73H675v58h72c37 0 66 9 87 29s32 47 32 82c0 13-3 26-7 40-4 13-10 25-20 36-9 11-21 20-36 27-14 7-32 10-53 10H593V701c2-36 22-81 53-82zm29 282h63c15 0 26-4 35-12 9-7 13-17 13-28s-4-20-13-28c-8-8-20-11-35-11h-63v79z" fill="#ea5b21"/><path d="M969 693v84c0 28-1 54-4 78s-9 45-19 63c-9 19-22 33-40 44s-60 20-88 19c43-29 68-58 69-149 1-14 2-31 2-50V619h241v355h-83V693h-78z" fill="#e5097f"/><path fill="#834e98" d="M1361 764l-136 210h-73V619h81v213h2l137-213h73v355h-82V764z"/><path d="M1744 862c0 19-4 36-12 51-7 14-17 26-30 36-13 9-27 17-44 21-17 5-35 8-53 8-19 0-36-3-53-8-17-4-31-12-44-21-13-10-23-22-31-36-7-15-11-32-11-51V728c0-19 4-36 12-50s19-26 32-35 28-16 45-21c16-4 33-6 50-6s33 2 50 7 32 12 45 21c13 10 24 22 32 36s12 31 12 51v131zm-83-116c0-10-1-19-5-26-3-7-8-12-13-17-5-4-11-7-18-9s-14-3-20-3c-7 0-14 1-21 3-6 2-12 5-18 9-5 5-10 10-13 17-4 7-5 16-5 26v101c0 10 1 19 5 26 3 7 8 12 13 17 6 4 12 7 18 9 7 2 14 3 21 3 6 0 13-1 20-3s13-5 18-9c5-5 10-10 13-17 4-7 5-16 5-26V746z" fill="#009e43"/><path fill="#5e7abb" d="M1957 974V830h-113v144h-82V619h82v138h113V619h83v355z"/></g><path d="M44 541v-93h58v22H72v71H44zm68 0v-93h40c10 0 18 2 23 6 5 5 8 9 10 14 0 2 1 4 1 6v10c0 2-1 4-1 6-2 5-5 10-10 14s-13 6-23 6h-13v31h-27zm27-73v22h6c4 0 7-1 9-2s3-3 3-4c1-1 1-2 1-3v-2-2-1c-1-2-2-4-3-5-2-2-5-3-10-3h-6zm73 73l13-26-35-67h32l18 37 14-37h30l-42 93h-30zm79 0v-93h84v93h-27v-71h-30v71h-27zm101 0v-93h84v93h-27v-71h-30v71h-27zm92 0l33-93h33l33 93h-29l-5-16h-31l-5 16h-29zm49-69l-10 32h20l-10-32zm105 69v-93h28v37l27-37h31l-35 45 36 48h-34l-25-38v38h-28zm141 3c-17 0-29-5-38-15-8-10-12-21-12-35 0-13 4-24 12-34 9-10 21-15 38-15h1c17 0 29 5 37 15 9 10 13 21 13 34 0 14-4 25-13 35-8 10-20 14-37 15h-1zm0-23h3c1 0 2 0 3-1 4-1 8-3 12-7 3-4 5-10 5-19 0-8-2-14-5-18-4-4-8-6-12-7-1-1-2-1-3-1h-6c-1 0-2 0-3 1-4 1-8 4-11 8s-5 10-5 17c0 8 2 14 5 18s7 7 11 8c1 1 2 1 3 1h3zm57 20l14-93h27l16 54 15-54h28l13 93h-26l-6-51-15 51h-18l-15-51-7 51h-26zm124 0v-93h84v93h-27v-71h-30v71h-27zm91 0l34-93h33l33 93h-30l-5-16h-30l-5 16h-30zm50-69l-10 32h20l-10-32zm57 69v-93h27v33h31v-33h27v93h-27v-37h-31v37h-27zm103-93h25v54l35-54h27v93h-27v-54l-34 54h-27v-93h1zm105 0h25v54l35-54h27v93h-27v-54l-34 54h-27v-93h1zm17-20l15-6h1c1 2 2 4 3 5s2 2 3 2c1 1 2 1 2 1h5c1 0 1 0 2-1 1 0 3-1 4-2s1-3 2-5h1l15 6c-2 5-5 9-10 11-5 3-10 4-16 4h-1c-6 0-12-1-16-4-5-3-8-6-10-11z" fill="#fefefe" fill-rule="nonzero"/><path d="M2725 837h-1 1zm-34 15h-1 1zm236-619c113 120 164 298 64 462v-1c10 29 6 64-5 86l-1 2-1 2-1 1-2 3-1 1-1 3c-7 14-8 21-10 37v18c4 19 12 29 12 46l-1 4-1 2-1 3-2 1-1 3-1 1-1 1-2 1-1 2-1 1-1 1-2 1-2 2-3 2-1 3-1 2-1 4-2 6-1 5-1 6-2 7-1 3-1 5-1 4-2 3-1 2-1 3-1 1-2 1-1 1-4 4-2 2-3 1-6 1-14 1h-3l-5-1-3-1h-5l-6 1h-14l-14-1-1-1h-4l-3 1-5 1-9 1h-10l-8-1-3-1-3-1-1-2-1-5v-10h0c1-7 4-15 9-22 7-12 37-8 51-35 4-5 9-12 15-18v-2l-2-2c-9-9-21-25-25-36l-1-2c-4-8-6-18-7-27l-2-19-3 4c-14 14-17 32-17 50l2 4 1 4 1 2 1 5v18l-1 4-1 3-1 4c-12 11-32 39-46 53l-14 17-12 9c-25 11-14 9-35 8l-4-2-2-1h-1l-4 1-6 2h-18l-5-2-29-1-5-1-2-1-3-3c-13-22 16-55 35-61h9l3 1 3 1v-2l2-3c11-11 40-41 42-45v-2c-10-11-13-14-16-30h-1v1h-1s0 0 0 0c-9 9-21 14-33 15 0 0 0 0 0 0h-1c-4 1-8 1-12 1l2 4c1 3 1 6 1 9s0 5-1 8c0 3-1 6-4 9-5 5-12 9-19 10h-9l-2-1-3-1-1-2-1-1-1-1-2-1-1-2-1-1-1-1-2-1c-4 0-8-1-12-1-12-1-23-6-29-17l-1-2-2-2c-8 2-31-3-35-21h-2v3c-3 3-19 25-21 30l-2 2-1 3-1 3-1 4-2 11-1 13-1 10-1 9-2 6-1 5-1 5-1 4-2 3-6 13c-1 3-8 13-10 15l-4 4-1 1-1 1-1 2-2 1-1 1-1 1-4 4-1 1c-6 6-25 16-30 19s-14 6-19 8l-5 1-4 1-5 1-5 2-6 1-8 1-7 1-15 2h-30l-5-2-1-1-3-1h-1c-8 4-16 8-25 10h-16l-4-1-3-2c-20-1-18 2-36-7l-1-8-2-2-2-1-1-2-3-1-1-1-3-1-1-3v-9l1-3c3-11 6-27 10-36l2-2 1-3 1-1c5-5 17-7 24-9l18-2c3-4 6-6 11-9 19-10 33-11 54-14h7v-2l1-3 2-2 1-4 4-7c4-9 13-29 17-40l29-58c25-50 28-91 13-103-20-15-63-19-126-38-22-6-45-18-60-37-10-14-14-30-15-46-4-1-8-2-11-4-31-12-50-43-61-73-13-36-17-77-13-115 1-11 3-23 5-34 7-33 21-85 55-98 7-3 15-4 22-3-1-2-2-4-2-5-4-7-8-13-12-19-10-17-15-35-9-55l3-10 7 8c5 7 18 14 25 18s14 7 21 10c1 0 2 1 4 2v-2c-2-4-4-8-6-13-4-12-7-23-4-35l1-6 6 1c6 2 13 3 19 3 4 0 8 1 11 0 1 0 4-1 5-2h0c1-1-1-5-1-6-2-4-4-8-5-12-2-5-4-11-4-17 1-11 12-22 20-29 12-11 26-20 41-25 13-6 28-9 42-8 18 1 31-4 46-13 5-3 11-7 17-10 5-3 11-6 17-6 3 0 6 1 9 2 16 9 26 22 31 40 2 6 3 12 4 19 0 1 1 5 1 7 1 0 2 0 2-1 10-6 16-24 18-35 3-11 5-25 4-37l-1-10 9 5c8 3 13 8 17 15s5 15 6 23c0 5 0 10-1 15 2-2 3-5 5-7 2-3 4-6 7-9l9-11 1 14c1 13 0 25-1 38 0 4-1 8-1 12h0c4-3 7-8 9-11 7-10 13-19 21-28 27-31 61-36 100-28l12 2-9 8c-3 3-14 12-16 16 1 1 3 1 4 1 5 1 10 1 15 0h1c19 0 37 5 51 17 13 11 21 26 28 41 8 17 14 36 21 53 16 44 36 79 75 108l7 5-8 5c-16 8-32 10-49 6-7-1-13-4-19-6 2 3 5 7 7 10 4 4 7 8 10 12 5 6 10 13 15 19 24 34 40 73 45 115 4 37 0 74-13 109-6 17-14 33-25 49 16 11 37 19 52 26l3 1c15 8 35 24 45 36 107-206-4-362-64-430-53 1-35-74-52-105 7 2 11 7 14 9 3-5-5-21-14-38 14 8 24 17 31 35 0-10-5-14-6-24 19 44 71 59 43 119z" fill="#2b2a29" stroke="#2b2a29" stroke-width="7.62"/><path d="M2571 789c0 22-13 25-13 30v4c0 16 15 28 31 29-1-5-1-3-1-7 0-18 11-19 11-40h1v-1h6c0 19-11 22-11 35v5c0 7 6 17 11 20 8 7 15 6 21 8-1-5-4-5-4-11v-4c0-5 7-14 10-18 4-6 6-17 9-19 1 0 1-1 2-1-1-2-3-3-6-5 3 2 5 3 6 5 0 3 1 2 1 5 0 17-15 19-15 33v1c0 7 19 27 21 27 5 0 16-4 20-8 1-1 2-2 2-3v-8c0-10-8-18-11-25l1-2 1-1c5 1 8 5 13 5h10c24 0 62-36 84-58l12-12v-1h1c15-15 25-25 37-45 3-5 2-11 5-17 2-5 4-1 8-12 4-10 10-17 10-31v-1c0-16-8-18-8-26v-1l1-1 11 8c0-8 3-10 3-18v-13c0-3-1-6-1-9 2-2 4-5 5-8l2 15v5-1c-1 15-7 62-8 66-3 10-7 19-11 27-4 7-8 27-12 29v1c-1-2-2-2-2-4v-1c0-5 1-5 2-9-4 4-9 16-12 20-6 8-11 12-17 19-1 1-2 3-4 5-4 3-10 9-15 14-7 7-14 14-14 16h5c13 0 35-3 47-6 13-3 28-11 40-14v-8c0-11 11-34 17-42 2-2 4-5 6-7 3-3 6-5 9-8 10-6 12-4 21-9 0 1-1 1-1 2-3 3-15 9-25 19-4 3-7 7-9 12-7 14-14 34-14 55 0 23 8 49 17 63 6 9 9 16 18 22 3 2 22 16 23 18h-2 1-6l-13-7c-2 1-3 2-5 4-5 5-9 11-12 16-5 7-6 11-10 14-2 2-5 4-10 6-10 4-24 10-33 19-5 4-8 10-8 17v2c0 3 3 6 6 6h15c8 0 13-1 15-4 3-3 4-8 7-12 1-2 2-3 4-5 5-5 14-11 21-12l1-8 1-1 5-3v13c0 1 0 1-1 2-2 3-11 3-16 7-2 1-5 3-8 6-2 2-4 4-4 6v11h19c6 0 9-1 13-2v-9c0-5 2-9 5-11 4-4 9-7 13-10 1-2 2-3 2-6h5v6c0 2-1 3-2 4-2 2-7 2-12 6-1 1-3 3-4 6-5 12-2 16 13 16 8 0 13-2 17-6 7-8 9-21 11-35 3-19 27-29 27-46 0-11-13-25-13-46v-10c0-38 30-62 30-94v-10c0-11-3-21-7-31 7-7 12-17 18-28 18-35 30-72 36-111 6-45 3-90-8-133-17-71-56-136-105-189l-2-2 1-3c8-16 11-33 3-50-5-11-14-20-22-30-4-4-7-8-10-12v8c-2-2-4-4-3 0 0 1 2 4 4 7v4c-1 0-1-1-2-1l-7-17c-4-11-9-18-16-24 1 3 3 6 4 9 2 5 5 14 2 19l-3 5-4-4c0-1-1-2-2-3 1 4 2 8 3 11 1 9 2 17 3 26 2 14 4 36 15 47 6 6 14 8 22 8l2-1 2 2c42 48 77 103 95 165 26 87 15 173-23 254-4 9-9 18-15 24-10-14-22-26-34-33-22-14-45-17-66-35l-6-6-1-6v5c-3-3-5-6-7-9 0-2 0-5 1-8l-3 6h-1v1c-1 3-3 5-5 8 0-4-1-7-1-11 0-6 0-12 4-20 2 13 9 23 19 30 0 0 0-1 1-2 1 1 1 2 2 3 16-23 28-51 32-88-1 5-2 9-3 13 14-60 5-129-39-192-24-33-28-36-47-65 26 9 52 31 84 15-107-80-68-212-171-212-46 3-20-21-8-33-102-21-97 74-140 75-4 0 9-21 7-55-6 7-14 23-23 31 0-15 13-54-14-67 1 20-9 59-27 70-23 14-4-35-49-57-20-10-34 22-82 19-43-2-87 39-89 58-1 15 15 30 9 39-7 8-42 2-49 0-5 23 18 49 21 62-22 8-59-25-71-39-13 38 36 64 34 81-55-14-81 65-88 129-9 85 18 172 80 182v9h1c-2 12 0 23 5 33 26 52 110 58 161 70 17 5 37 10 50 22 0 7-5 27-6 35-3 12-3 23-5 36-2 11-23 43-29 56-9 18-18 37-27 56-10 20-15 38-28 56 0 1 0 1-1 1h-3l6-13c-15-1-26 1-37 5-13 4-20 11-27 14l5 2c-1 0-1 0-2 1h1c-10 6-32-4-44 8-5 5-5 11-7 18-1 4-6 20-6 21v3c0 4 3 6 6 7 6-13 7-24 14-31 5-5 13-8 29-8h9l-2 2c-4 5-25 4-33 12-9 10-10 22-13 36 2 3 11 7 16 7h12v-20c0-3 2-6 5-9 6-6 19-12 25-12h5c3 0 3 1 3 4h-1s1 0 1 1c-9 0-22 4-29 11-3 3-4 6-4 9v5c0 7 6 14 13 14h7c10 0 24-9 31-14 2 7 11 9 20 9h4c18 0 63-11 76-16 16-8 30-17 41-28 4-4 7-8 11-12 15-20 18-40 22-70 4-25 29-42 30-61l-15-8c-8-15-5-48 6-64l20-29c4-10 8-20 9-31v1c5-17 7-33 6-45 13 9 19 24 20 41 29-24 57-34 95-38 5-1 7-23 8-35 2-23 10-58 32-70l-4 19c30-71 12-90 25-98s8 26 16 6c2 3 3 9 4 11-2 3-3 6-5 7-2-3-4-4-4 3-1 0-2 0-2 1 0-1-7-24-7-4v3c-8 15-12 31-11 47-8 17-16 31-18 52-2-6-3-14-2-23-9 4-11 25-14 46-3 20-6 40-15 41-8 1-17 2-26 4-28 7-57 22-77 40l-15 15c-1 1-3 2-4 3-5 6-9 12-14 17 0 1-1 2-1 2-7 11-21 39-21 54v9c0 8 11 16 19 17v-7c0-5 3-8 6-11 1-2 3-3 5-5 5-5 3-11 4-19l1 1v-1l4 2zm258 82c0-1-1-2-1-2-1-2-4-17-4-20v-10c0-30 30-45 30-53-7 2-13 5-20 8-8 3-15 4-23 7-11 4-37 6-52 6-4 3-11 8-16 13-5 6-9 11-9 17 0 7 12 21 16 27v5c-2 3-6 8-11 13-6 6-13 12-16 15-1 1-2 2-4 3-7 7-16 19-20 23l-2 2c-3-2-6-4-10-4-7 0-14 5-21 11-7 7-12 17-12 25v2c0 8 3 14 11 14h18c0-14 3-22 9-28 5-5 13-8 24-11l2-7s1 0 1 1v-2c3 4 2 0 2 3 0 4-2 7-2 10h-1v1h-10c-2 0-5 2-8 5-5 4-9 11-9 16v8c0 4 5 7 9 7h6c5 0 7-2 11-3 0-7 2-12 6-16 2-2 5-4 8-6 4-2 6-4 8-5 5-5 4-8 6-10l2-2v7c0 4-1 7-3 9-4 5-12 5-17 9-1 2-2 4-2 8v1c0 3 1 4 1 6h18c9 0 17-5 24-11 9-10 17-23 25-31l1-1 12-12c12-12 25-27 25-40 0-2-1-6-2-8z" fill="url(#id3)"/><path d="M2774 138c23 6 33 26 24 49 45-14 37 65 68 84-39 9-56-39-72-23 6 21 68 81 82 108 55 103 26 178-70 236-20 39-60 34-101 35 3-21 5-42 14-46-1 9 0 17 2 23 3-38 28-52 29-102 0-20 7 3 7 4 14-4 22-37 22-50l-11 17c-14 41-5-4-20 5-13 8 5 27-25 98l4-19c-22 12-30 47-32 70-33 2-65 9-87 49 6-139 88-113 101-191 8-46-19-99-51-115l-26 7c49-31-36-156-71-123l-18 34 1-39c-9 7-15 31-20 42l-5-31c-1 2-8 26-9 27-28-44-81-12-78 85-15 47-29 40-36 83-1 5-3 10-7 13 32 20 57-8 98 47 3 1 6 3 8 5-3-8-9-13-11-22 9 1 26-32 33-40 15-19 18-11 25 7 6 14 6 19 21 24 7 2 13-8 12 0-1 4-2 18-2 22 0 39-38 90-38 87 0-16 12-50 3-38-3 3-19 32-19 22 0-7-1-20-1-19-1 1-2 3-3 5-1 13-2 27-1 41 2 14 33 35 42 48 16 25 12 52 1 77l-20 28c-11-10-23-16-37-22-3-2-6-5-9-7 6 5 13 11 14 12-9 16-9 56-13 78-5 29-13 43-23 67-8 18-19 43-29 61-6 10-37 39-48 42v-6c-8-12-30-16-34-23 6-8 11-4 11-20 0-2-4-3-6-5 13-18 18-36 28-56 9-19 18-38 27-56 6-13 27-45 29-56 2-13 2-24 4-36 2-8 7-30 7-36v1c-13-12-33-17-50-22-51-12-135-18-161-70-27-54 47-127 75-170-13-2-27-2-40-2 0-9 1-17 0-25-30 10-46 3-74-9 30-24 19-64 41-89 12-13 35-1 54-8-26-10-32-63-63-94 36 17 61 6 76-3 5 0 11-13 15-13-15-23-5-63-5-90 47-16 96-10 90 56 72-4-33-69-2-96 65-24 102 1 104 76 3 21 16-59 36-75-4 23 0 48 12 50 7 7 26 4 36-8 15-19 58-80 113-67-36 23 10 46-5 59 31-19 87-21 64 38zm178 137c27 37 48 78 61 123 13 42 17 87 13 131-5 45-18 89-38 129-5 11-1 28 8 9 18-35 31-72 37-111 2-20 3-40 3-60-1-24-5-48-11-71-13-54-39-105-73-150zm-385 512l-6-8c4-19 14-34 34-39l6 18 5 4h26c5 6 5 18 8 20 0 0 19 8 21 10 7-2 54-38 62-45 10-8 18-17 27-27 8-10 15-28 20-34 2-3 6-14 10-26-15 10-33 17-51 19-9 2-17 2-25 2-12-9-27-11-40-9-28 7-57 22-77 40l-15 15c-1 1-3 2-4 3-5 6-9 12-14 17 0 1-1 2-1 2-7 11-21 39-21 54v9c0 8 11 16 19 17v-7c0-5 3-8 6-11 1-2 3-3 5-5 5-5 3-11 4-19l1 1v-1zm346-28c0-39 32-41 32-66v-5c-25 2-40 26-49 44-11 22-22 40-22 72v19c0 17 17 47 35 47h2c5 0 9-2 9-6v-5l-8-80 1-20zm-433-36c-8-8-13-22-22-24 9 2 14 16 22 24z" fill="url(#id4)"/><path d="M2392 993v4c6 0 11 2 15 2 4 1 11-2 16-2 7-1 25-5 30-8 18-8 26-21 35-39 4-8 7-17 10-26 3-10 4-24 6-31 4-12 29-41 29-48l-2-18-1-1-2-20v-1c0-11 5-16 5-30 2-3 4-4 4-9v-3c0-2-1-3-3-5l1 1c64-95-24-104-29-142-1-14 1-27 2-40v-1c0-4-10 10-11 6 0-6 7-31 3-37-1 0-1 0-1-1-3-3-6-5-11-8-56-31-81 30-131 30-28 0-42-43 30-106 6-5-18-16-11-22 12-11 22-22 34-46 6-14 21-37 26-54-5-17 9-30 14-39 4-6 19-19 34-23 24 4 15-31 34-32 2-8 32-33 36-7 4-9 17-11 20-10 4 2-2 14 3 21 4 6 101 37 94 110 22 4 43 2 57-30-15-26 15-31 27-24 14 8 29 47 50 81 45 73 26 153 1 198 242-145-33-307 5-345-3-10 1-19 11-18 8 1 21 12 20 7-7-46-71 14-59-28 31-43-17-42-44-37-10-12 49-16 20-40-22-15-58 1-79 12 44-33 47-51 24-56 18-26 0-29-32-19-44 16-23 68-93 80-6 23-53 48-58 16-13-72-30-75-56-73-5 17-42 36-18 70 36 58-16 58-16 14 0-33-35-57-78-43 0 31-8 59 5 72 14 13 46 22 46 34 0 35-27-11-77-11-67 0 14 23-2 81 0 1 29 20 17 22-19 2-49 15-64 32s-8 35-27 50c29 13 58-31 58 21 30 1 51 4 43 18-13 25-60 86-72 107-60 107 120 100 181 132 29 13 42 41 48 65-1 0-3-1-4-1-9 16-9 56-13 78-4 29-13 43-23 67-8 18-19 43-29 61-5 10-37 39-48 42zm378-307c0 6-3 32-5 36-5 9-11 17-17 25-7 10-33 38-33 51 0 1 3 4 4 4 13 0 75-71 88-84 16-16 22-31 26-59 2-16 4-35 5-54-8 12-18 23-28 33-9 8-19 16-30 22-4 12-8 23-10 26zm-20 183l1-6h22c4 0 7 7 7 11v13c0 13-7 26 4 31 14-3 17-7 27-14 2-2 18-22 18-24v-9c0-1-1-2-1-2-1-2-4-17-4-20v-10c0-29 30-45 30-53-7 2-13 5-20 8-8 3-15 4-22 7-12 4-37 6-53 6-4 3-11 8-16 13-5 6-9 11-9 17 0 7 12 21 16 27v5zm28-79c7 0 14-3 20-4 9-2 14-1 23-2 13-1 32-6 34-18 3-14 4-28 10-39 5-8 22-22 22-31 0-16-17-20-33-20-2 10-10 24-13 35-4 11-9 24-13 34-6 13-10 19-22 26-9 4-23 12-28 19zm174 15c0-34 36-44 36-75v-5c0-13-4-27-16-27-13 0-27 18-34 25-10 10-14 24-14 44v13c0 14 2 42 5 55 2 12 2 43 14 43 15 0 9-33 9-49v-24z" fill="url(#id1)"/><path d="M2280 293c-24-6-54-26-76 12-34 61-26 115 0 179 9 22 27 43 32 56 12 30 10 3 10-17 0-41-29-62-29-90 0-10-4 12-4 19 0 26-10-23-10-33 0-39 2-56 19-83 9-14 33-41 58-43zm406 69c0-99 113-3 113 62 0 16-5 28-10 39v-1l-11 17c-1 1-1 1-1 2-3 5-6 9-9 14-1-3-2-11-6-12 7-12 15-23 21-34 7-11 3-29 3-28-2 21-38 60-31 46 10-19 4-43-2-60-4-8-22-30-20-25 2 3 3 25 3 30 0 2-29-51-50-50zm171 233c-22 38-65 87-114 79 24-68 52-38 88-78-2 7-26 31-31 34-16 9 32 8 58-45-1 4-1 7-1 10zm-158-80c-61 38-92 67-92 140 0 7 3 24-3 15-47-69 9-166 95-155zm51 354c-2 3-6 8-11 13-6 6-13 12-16 15-1 1-2 2-4 3-7 7-16 19-20 23l-2 2c-3-2-6-4-10-4-7 0-14 5-21 11-7 7-12 17-12 25v2c0 8 3 14 11 14h18c0-14 3-22 9-28 5-5 13-8 24-11l2-7s1 0 1 1v-2c3 4 2 0 2 3 0 4-2 7-2 10h-1v1h-10c-2 0-5 2-8 5-5 4-9 11-9 16v8c0 4 5 7 9 7h6c5 0 7-2 11-3 0-7 2-12 6-16 2-2 5-4 8-6 4-2 6-4 8-5 5-5 4-8 6-10l2-2v7c0 4-1 7-3 9-4 5-12 5-17 9-1 2-2 4-2 8v1c0 3 1 4 1 6h18c9 0 17-5 24-11 9-10 17-23 25-31l1-1 12-12c12-12 25-27 25-40 0-2-1-6-2-8v9c0 2-16 22-18 24-10 7-13 11-27 14-11-5-4-18-4-31v-13c0-4-3-11-7-11h-22l-1 6zm-444 79c10 2 17 12 18 23 2 12 10 19 13 28l11 2h40c4 0 3-1 4-4v-10c-8-12-30-16-34-23 6-8 11-4 11-20 0-2-4-3-6-5 0 1 0 1-1 1h-3l6-13c-15-1-26 1-37 5-13 4-20 11-27 14l5 2zm261-161l4 2 29 15h6c9 1 35 9 38 15h3v1l18 13 1-1 4-2c1-2 1-3 1-6v-5c0-15-8-21-10-27-2-2-21-10-21-10-3-2-3-14-8-20h-26l-5-4-6-18c-20 5-30 20-34 39l6 8zm348-566c19-33-12-55-17-69-6 7 13 21 9 32 0 1-1-8-12-15 2 13 9 22 1 35-5-1-8-16-10-5-1 10 16 29 29 22zm-151 284l-6 15c1-3 1-7 1-12 0-13 3-8 5-3zm-15 50c-1 7-2 14-2 20 0 19 0 9-3 0-1-2-1-3-2-4 3-6 5-11 7-16zm-9 7c-4-22 2-43 12-62-1 12-1 31-12 62z" fill="url(#id2)"/><path class="fil14" d="M2507 336c3-17-7-25-24-19-9 3-9 12-17 14-1 0-9 3-7 3 7 0 7 2 6 7-1 3-7 11-1 10 7-2 12-9 21-12 4-1 21-3 22-3zM2544 335c0-8 0-10 3-17 5-9 9-14 20-15 7-1 17 5 15 13s-1 10 5 13c1 1 2 10 1 12-3 2-17-3-22-3-8 0-15-2-22-3z"/><path class="fil15" d="M2581 360c-21-9-91-13-111 6-24 25-13 38 2 50 30 24 124 22 127-27 1-8 0-10 6-14 8-5-14-12-24-15zM2599 262c3 0 6 4 9 1 12-10 37-13 46 5 5 10-3 58-15 61-27 4-8-26-24-42-7-7-10-6-19-11h-3c-2-1-5-2-6-5-2-3-2-6-2-9-3 2-7 3-10 1-2-2-2-4-2-6-3 2-7 1-9-2-2-1-2-4-1-6 0-3 2-6 3-9l10-21 11-17-2 1c-6 4-9 9-13 14l-20 30c-1 2-2 3-4 4h-4 2l-6-3v-1l-1-1v-3l1-1 8-29v-3l-1 2-11 37c-2 3-4 6-7 6-2 0-3 0-4-1-2 1-4 2-6 1h-2c0 2-1 4-1 6-1 5-5 9-9 8-2 0-4-1-5-3 1 3 0 7-3 8-5 4-12 13-18 17-7 6-18-3-21 1-2 3-3 8-9 8 4 0-1 15-6 17-12 6-15-7-16-17-2-16 2-61 26-57 9 2 21 18 25 24 1 1 2 1 3 0 0-1 1-2 1-3 1-3 2-6 2-9 1-12-19-91 9-33l10 15 2 4 1-3c0-11 5-70 14-26 2-1 5-1 7 1 2 1 3 3 3 5l10-32c6-18 21-30 23-3l-3 25c4-6 9-12 15-16 51-37 20 19 9 37 2 1 4 2 5 4s1 5 1 8c2-1 4-1 6 0 3 2 5 5 4 8 0 2 0 4-1 6 0 2-2 3-2 5v2zm-42 65c2 0 3-2 3-4 0-1-1-3-3-3s-3 2-3 3c0 2 1 4 3 4zm26-10c3-10-8-26-19-19-9 6-17 14-21 24-2 4-7 25 0 21 13-5 36-1 52 8 4 3 9 4 6-3-1-4-27-13-32-14 6-11-3-21-15-15-7 4-3 14-7 12-6-2 5-27 21-28 19-1 2 14 15 14zm-121 11c9-4 21-20 35-21 12-1 23 9 17 22-2 3-5 3-4 8 2 17-5 6-13 6-12 0-16 2-25 8-4 2-10 8-14 9-1 1-19 2-14-1 15-10 35-12 38-24-6-13 12-20 19-9 1 2-1 5 3 5 8-1-4-19-18-14-3 1-27 19-24 11zm39-64v-2c-1-7 2-2-2-8v1c0 2 0 4-1 6l3 3zm-52 32c1-7 5-9 10-14 2-2 9-1 6-5-12-14-18 4-18 12 0 3 2 5 2 7zm86-48zm17-2v1-1zm-13 0v1-1zm82 28c5 5 10 15 12 22 3-4 8-32-12-22z"/><path class="fil14" d="M2493 330c2 0 3-2 3-3 0-2-1-4-3-4s-3 2-3 4c0 1 1 3 3 3zM2474 396c-1-44 100-30 120-18-50-30-141-22-120 18z"/><path d="M2357 448c2 4 0 9-3 10-4 2-8 1-10-3-1-2-3-6-3-10s1-8 5-11c34-8 62-28 90-60 17-10 15 28 7 35-1 1-3 2-4 2-2 0-6 2-10 3-6 3-12 7-18 11-3 2-6 4-6 5 5 13 5 24 5 33 0 7 0 12 3 13 23 3 50 7 73 15 8-10 41-51 48-54 4 6 16 32 23 40v1c20-7 55-7 76-7 3-10 13-26 22-41 17-29-17-50-35-40-5-2-7-5-5-10v-1c3-5 10-8 15-7 3 1 6 6 14 6 6-4 14-5 23-4 30 3 46 34 54 61 6 19 11 40 11 65 0 4-7 8-11 8s-9-15-9-19c6-9 0-32-5-50-22-74-67-42-27-33 3 1 5 3 5 5 1 4-1 8-5 9-16 7-29 43-32 59 0 0-7 6-9 6-10 0-34 0-55 3 2 2 4 5 2 10-5 7-4 13-6 18-10 23-24 53-43 82-3 1-11-3-10-8 4-7 7-22-10-1 4-14-1-18-1-20-6 10-18 25-20 19-3-10 2-22 1-32-1-17-4-33-11-47-1 0-2 0-3-1-7-2-20-6-33-9-16-4-32-7-39-9-17-2-16-12-16-27 0-8 1-18-3-27-1-1-1-2-1-3-1-7 4-14 11-20 1-1 1-1 2-1-4 2-8 5-12 8-12 9-24 17-36 25 0 1 1 3 1 3zm217 42c-10 1-19 4-24 7-8-15-12-33-17-49-13 13-28 31-38 50 7 23 10 51 5 76 14-15 17-25 21-36 2 5 3 22 1 30 6-3 15-14 17-29 1 1 6 1 8 1 1 8-5 27-7 37 20-15 30-57 30-81 1-3 2-5 4-6z" fill="#22201e" fill-rule="nonzero"/></g></g></svg>