<svg height="512" width="512" xmlns="http://www.w3.org/2000/svg"><linearGradient id="a" gradientUnits="userSpaceOnUse" x1="256" x2="256" y1="451" y2="0"><stop offset="0" stop-color="#fd3a84"/><stop offset="1" stop-color="#ffa68d"/></linearGradient><linearGradient id="b" gradientUnits="userSpaceOnUse" x1="286" x2="286" y1="512" y2="61"><stop offset="0" stop-color="#ffc2cc"/><stop offset="1" stop-color="#fff2f4"/></linearGradient><path d="M256 0C131.928 0 31 101.928 31 226s100.928 225 225 225c25.078 0 79.169-4.186 101.682-11.838L367.775 421C435.317 382.129 481 309.372 481 226 481 101.928 380.072 0 256 0z" fill="url(#a)"/><path d="M241 226c0 8.284 6.716 15 15 15s15-6.716 15-15-6.716-15-15-15-15 6.716-15 15zm15-75c24.814 0 45-20.186 45-45s-20.186-45-45-45-45 20.186-45 45 20.186 45 45 45zm120 120c24.814 0 45-20.186 45-45s-20.186-45-45-45-45 20.186-45 45 20.186 45 45 45zm30 150h-38.225c-32.974 18.975-71.074 30-111.775 30h150c24.814 0 45 21.186 45 46 0 8.291 6.709 15 15 15s15-6.709 15-15c0-41.353-33.647-76-75-76zm-105-75c0-24.814-20.186-45-45-45s-45 20.186-45 45 20.186 45 45 45 45-20.186 45-45zM136 181c-24.814 0-45 20.186-45 45s20.186 45 45 45 45-20.186 45-45-20.186-45-45-45z" fill="url(#b)"/></svg>